<?xml version="1.0" encoding="UTF-8" standalone="no"?>
<!DOCTYPE svg PUBLIC "-//W3C//DTD SVG 1.1//EN" "http://www.w3.org/Graphics/SVG/1.1/DTD/svg11.dtd">
<svg xmlns="http://www.w3.org/2000/svg" version="1.1" viewBox="0 0 1544 678" width="1544.0pt" height="678.0pt">
<path d="M 0.00 0.00 L 1544.00 0.00 L 1544.00 678.00 L 0.00 678.00 L 0.00 0.00 Z" fill="#ffffff" />
<path d="M 378.02 93.82 C 434.38 102.55 487.43 131.48 525.00 174.43 C 511.68 177.89 498.65 182.55 485.46 186.48 C 461.53 193.70 436.86 200.74 412.09 204.29 C 393.81 206.72 375.25 207.10 357.86 200.14 C 339.56 192.94 322.83 178.41 306.55 167.45 C 290.79 157.13 272.67 152.23 254.00 150.90 C 230.34 149.28 206.39 153.08 183.39 158.42 C 177.09 159.86 170.91 161.72 164.55 162.94 C 198.48 128.91 242.78 105.24 289.88 95.78 C 318.82 89.92 348.84 89.27 378.02 93.82 Z" fill="#d9e2f0" />
<path d="M 1084.72 115.25 C 1087.86 117.55 1089.53 121.07 1089.39 124.98 C 1089.38 150.17 1089.38 175.37 1089.39 200.57 C 1091.90 198.33 1094.46 196.17 1097.22 194.24 C 1120.00 177.87 1153.63 178.09 1176.16 194.83 C 1187.59 203.26 1197.00 214.88 1201.53 228.45 C 1204.29 236.39 1205.20 244.63 1205.19 253.00 C 1205.14 271.69 1205.23 290.44 1205.15 309.12 C 1205.09 313.71 1201.89 318.06 1197.52 319.45 C 1195.09 319.87 1192.19 320.00 1189.84 319.15 C 1185.91 317.39 1183.08 313.42 1183.13 309.05 C 1183.03 289.04 1183.21 269.00 1183.04 248.99 C 1182.65 230.25 1169.66 213.20 1152.22 206.84 C 1144.15 203.99 1135.19 203.57 1126.80 205.07 C 1106.21 208.91 1089.76 228.09 1089.43 249.11 C 1089.33 267.40 1089.40 285.71 1089.40 304.00 C 1089.33 308.16 1089.92 311.81 1087.29 315.38 C 1083.57 321.09 1074.07 321.38 1069.95 316.03 C 1067.97 313.76 1067.26 311.02 1067.33 308.05 C 1067.34 247.02 1067.33 185.99 1067.33 124.96 C 1067.25 121.73 1068.25 118.83 1070.53 116.51 C 1074.11 112.68 1080.51 112.17 1084.72 115.25 Z" fill="#000000" />
<path d="M 254.00 150.90 C 272.67 152.23 290.79 157.13 306.55 167.45 C 322.83 178.41 339.56 192.94 357.86 200.14 C 375.25 207.10 393.81 206.72 412.09 204.29 C 436.86 200.74 461.53 193.70 485.46 186.48 C 498.65 182.55 511.68 177.89 525.00 174.43 C 537.72 189.02 548.94 204.86 558.06 221.95 C 574.12 251.77 583.89 284.89 586.63 318.65 L 585.33 319.21 C 578.20 319.76 571.17 320.73 564.00 320.66 C 537.53 320.77 511.74 313.35 488.00 302.01 C 465.61 291.33 445.36 277.44 426.15 261.82 C 403.57 243.71 377.62 230.31 348.96 225.19 C 322.94 220.49 296.25 222.99 271.20 231.19 C 249.36 238.36 228.66 249.35 210.70 263.72 C 204.11 268.69 196.50 272.49 189.11 276.10 C 167.71 286.24 144.93 293.65 121.81 298.73 C 112.46 300.69 103.01 302.52 93.50 303.49 C 100.76 251.53 125.27 202.40 162.11 165.09 C 162.91 164.35 163.73 163.64 164.55 162.94 C 170.91 161.72 177.09 159.86 183.39 158.42 C 206.39 153.08 230.34 149.28 254.00 150.90 Z" fill="#aac0dd" />
<path d="M 681.31 185.70 C 684.05 188.59 684.37 192.03 684.35 195.85 C 698.08 184.37 716.45 179.91 733.99 183.16 C 749.49 186.08 763.17 195.35 772.45 208.00 C 782.00 194.85 796.61 185.31 812.76 182.84 C 826.42 180.86 840.74 183.12 852.64 190.29 C 865.66 198.13 876.27 210.99 880.38 225.74 C 882.00 231.34 882.68 237.15 882.67 242.98 C 882.69 264.67 882.67 286.37 882.69 308.06 C 882.76 311.03 882.05 313.77 880.06 316.04 C 876.11 321.18 867.00 321.12 863.14 315.92 C 861.26 313.65 860.56 310.94 860.62 308.02 C 860.62 286.01 860.65 263.99 860.61 241.99 C 860.71 225.17 848.38 209.78 832.28 205.49 C 826.60 203.99 820.50 203.88 814.72 204.84 C 797.59 207.86 783.76 223.68 783.51 241.17 C 783.39 263.78 783.53 286.43 783.44 309.05 C 783.50 313.72 780.09 318.29 775.57 319.52 C 773.60 319.84 771.37 319.83 769.39 319.53 C 764.76 318.31 761.36 313.69 761.43 308.91 C 761.36 286.28 761.51 263.62 761.36 240.99 C 761.05 223.68 747.38 208.02 730.46 204.89 C 723.21 203.63 715.40 204.09 708.52 206.82 C 694.74 212.43 684.56 225.99 684.31 241.06 C 684.23 263.38 684.29 285.71 684.28 308.03 C 684.37 311.13 683.46 314.07 681.35 316.38 C 677.17 321.32 668.13 320.96 664.44 315.56 C 661.63 311.99 662.26 308.24 662.19 304.00 C 662.20 267.66 662.22 231.32 662.18 194.98 C 662.08 191.62 662.58 188.51 664.94 185.95 C 669.00 180.97 677.09 180.88 681.31 185.70 Z" fill="#000000" />
<path d="M 987.06 182.91 C 1016.68 186.94 1042.15 213.12 1044.86 242.99 C 1045.18 247.24 1046.16 252.95 1043.72 256.70 C 1041.62 260.18 1038.14 262.11 1034.06 262.06 C 999.69 262.13 965.25 262.02 930.88 262.12 C 933.63 273.21 940.14 282.92 949.51 289.50 C 964.79 300.62 987.40 300.76 1002.79 289.76 C 1005.36 288.00 1007.53 285.84 1009.88 283.82 C 1014.14 279.95 1021.59 280.23 1025.48 284.50 C 1028.80 288.27 1029.10 294.27 1026.28 298.40 C 1017.65 307.98 1005.64 314.93 993.13 318.01 C 985.13 320.12 977.21 319.83 969.02 319.57 C 938.71 317.13 911.74 291.16 908.14 260.97 C 906.23 246.13 908.43 230.94 915.82 217.81 C 922.15 206.58 932.13 196.70 943.38 190.40 C 956.66 182.98 972.09 180.83 987.06 182.91 Z" fill="#000000" />
<path d="M 1255.33 186.63 C 1258.41 190.51 1257.32 195.91 1257.49 200.56 C 1270.54 188.32 1288.02 181.42 1305.97 182.28 C 1311.63 182.95 1315.91 188.42 1315.17 194.11 C 1314.97 200.43 1309.12 204.71 1303.01 204.27 C 1288.93 204.26 1275.85 211.29 1267.29 222.31 C 1260.99 230.18 1257.65 239.95 1257.52 250.02 C 1257.45 269.68 1257.55 289.38 1257.47 309.04 C 1257.52 313.74 1254.13 318.30 1249.59 319.52 C 1247.63 319.84 1245.37 319.84 1243.41 319.53 C 1238.77 318.29 1235.38 313.66 1235.46 308.86 C 1235.43 270.58 1235.47 232.28 1235.44 194.00 C 1235.28 190.07 1236.93 186.46 1240.11 184.14 C 1244.87 180.73 1251.95 181.78 1255.33 186.63 Z" fill="#000000" />
<path d="M 987.73 205.50 C 1004.42 209.47 1018.08 223.36 1021.84 240.10 C 1010.88 240.15 999.97 239.59 988.99 240.13 C 979.66 239.98 970.35 239.67 961.01 240.04 C 950.98 239.72 940.95 239.99 930.91 239.85 C 933.75 228.55 940.49 218.69 950.15 212.15 C 961.06 204.50 974.87 202.59 987.73 205.50 Z" fill="#ffffff" />
<path d="M 348.96 225.19 C 377.62 230.31 403.57 243.71 426.15 261.82 C 445.36 277.44 465.61 291.33 488.00 302.01 C 511.74 313.35 537.53 320.77 564.00 320.66 C 571.17 320.73 578.20 319.76 585.33 319.21 C 580.90 322.28 576.38 325.06 571.68 327.69 C 537.67 346.97 502.55 364.37 467.34 381.35 C 446.09 391.60 422.83 399.00 399.00 398.43 C 378.82 398.06 360.17 391.78 342.41 382.59 C 319.34 370.59 298.35 354.88 274.37 343.63 C 248.50 331.43 219.51 326.16 191.00 328.35 C 155.81 330.83 123.55 342.62 91.41 356.28 C 90.27 338.65 90.84 320.96 93.50 303.49 C 103.01 302.52 112.46 300.69 121.81 298.73 C 144.93 293.65 167.71 286.24 189.11 276.10 C 196.50 272.49 204.11 268.69 210.70 263.72 C 228.66 249.35 249.36 238.36 271.20 231.19 C 296.25 222.99 322.94 220.49 348.96 225.19 Z" fill="#809ecd" />
<path d="M 585.33 319.21 L 586.63 318.65 C 587.90 326.77 587.42 334.83 587.41 343.00 C 586.87 381.48 577.22 419.76 559.39 453.86 L 558.68 451.86 C 553.34 452.16 548.42 453.39 543.19 454.36 C 532.66 456.36 522.16 458.47 511.68 460.66 C 500.74 462.79 489.16 465.55 478.00 465.39 C 468.16 465.24 459.42 462.23 450.41 458.60 C 434.78 452.18 419.64 444.46 404.07 437.93 C 378.38 427.15 350.06 417.97 322.00 417.46 C 301.98 417.01 282.43 421.39 263.99 429.00 C 245.64 436.47 227.78 446.68 210.66 456.66 C 191.82 467.71 172.93 479.15 153.80 489.79 C 151.00 491.35 148.27 493.03 145.56 494.75 C 137.67 484.65 130.31 474.18 123.94 463.05 C 105.17 430.60 93.84 393.70 91.41 356.28 C 123.55 342.62 155.81 330.83 191.00 328.35 C 219.51 326.16 248.50 331.43 274.37 343.63 C 298.35 354.88 319.34 370.59 342.41 382.59 C 360.17 391.78 378.82 398.06 399.00 398.43 C 422.83 399.00 446.09 391.60 467.34 381.35 C 502.55 364.37 537.67 346.97 571.68 327.69 C 576.38 325.06 580.90 322.28 585.33 319.21 Z" fill="#5c7fbe" />
<path d="M 949.00 358.25 C 955.24 358.15 960.21 363.82 959.85 369.95 C 959.85 429.63 959.83 489.32 959.86 549.00 C 959.77 552.61 960.32 556.24 958.34 559.44 C 955.94 563.45 951.63 565.55 946.99 564.79 C 941.39 563.95 937.43 558.63 937.77 553.04 C 937.79 494.04 937.78 435.01 937.78 376.00 C 937.79 373.27 937.66 370.51 937.89 367.79 C 938.59 362.40 943.50 357.99 949.00 358.25 Z" fill="#000000" />
<path d="M 1326.00 358.25 C 1332.00 357.83 1337.36 363.00 1337.39 368.95 C 1337.47 394.43 1337.40 420.04 1337.43 445.53 C 1349.79 433.97 1365.99 427.15 1383.00 427.20 C 1397.94 426.74 1412.81 431.22 1424.78 440.24 C 1437.33 449.67 1446.99 462.59 1450.93 477.93 C 1455.11 494.49 1453.59 513.21 1445.35 528.33 C 1439.32 539.41 1430.15 548.84 1419.42 555.43 C 1405.06 564.25 1387.46 566.70 1371.01 563.72 C 1358.33 561.45 1346.82 555.22 1337.43 546.51 C 1337.21 551.15 1338.37 556.41 1335.34 560.34 C 1331.86 565.47 1324.21 566.47 1319.49 562.50 C 1316.58 560.08 1315.24 556.82 1315.37 553.06 C 1315.40 491.74 1315.34 430.39 1315.40 369.07 C 1315.41 363.38 1320.23 358.23 1326.00 358.25 Z" fill="#000000" />
<path d="M 322.00 417.46 C 350.06 417.97 378.38 427.15 404.07 437.93 C 419.64 444.46 434.78 452.18 450.41 458.60 C 459.42 462.23 468.16 465.24 478.00 465.39 C 489.16 465.55 500.74 462.79 511.68 460.66 C 522.16 458.47 532.66 456.36 543.19 454.36 C 548.42 453.39 553.34 452.16 558.68 451.86 L 559.39 453.86 C 537.31 496.18 502.89 531.85 461.32 555.32 C 427.72 574.40 389.61 585.38 351.02 587.15 C 343.34 587.21 335.67 587.17 327.99 587.17 C 296.02 585.83 264.31 578.13 235.26 564.73 C 200.54 548.74 169.47 524.59 145.56 494.75 C 148.27 493.03 151.00 491.35 153.80 489.79 C 172.93 479.15 191.82 467.71 210.66 456.66 C 227.78 446.68 245.64 436.47 263.99 429.00 C 282.43 421.39 301.98 417.01 322.00 417.46 Z" fill="#426cb4" />
<path d="M 672.99 427.18 C 678.98 426.79 684.17 432.01 684.24 437.90 C 684.31 454.91 684.25 471.98 684.27 489.00 C 684.31 493.62 684.07 498.45 684.73 503.02 C 687.26 522.74 704.28 539.92 724.04 542.40 C 732.06 543.34 740.24 542.88 747.83 539.97 C 764.86 533.40 777.61 516.51 777.88 498.04 C 777.97 478.34 777.87 458.62 777.93 438.92 C 777.92 435.60 778.86 432.62 781.29 430.29 C 785.70 425.67 793.88 426.22 797.65 431.39 C 800.97 435.33 799.57 440.29 799.98 445.09 C 799.85 471.48 800.14 499.65 799.89 526.00 C 800.18 535.34 800.03 544.70 799.87 554.05 C 800.04 557.76 798.04 560.98 795.10 563.09 C 790.44 566.29 783.64 565.26 780.29 560.64 C 777.06 556.92 778.08 551.09 777.89 546.51 C 768.92 554.93 757.87 560.99 745.77 563.45 C 733.06 566.02 719.47 565.29 707.25 560.86 C 694.11 556.12 682.68 546.71 674.50 535.49 C 666.41 524.35 662.30 510.76 662.22 497.03 C 662.19 477.35 662.17 457.63 662.23 437.95 C 662.21 432.24 667.22 427.03 672.99 427.18 Z" fill="#000000" />
<path d="M 850.28 431.72 C 853.31 435.70 852.16 440.86 852.37 445.54 C 865.44 433.28 882.98 426.32 900.97 427.30 C 906.10 427.84 910.23 432.89 910.24 437.97 C 910.36 443.21 906.37 448.33 901.07 448.97 C 897.02 449.40 893.01 449.24 889.01 450.20 C 868.83 454.36 852.76 473.30 852.42 494.00 C 852.28 514.00 852.44 534.03 852.34 554.04 C 852.37 560.08 847.08 565.26 841.00 564.92 C 835.23 564.91 830.27 559.75 830.34 554.01 C 830.28 515.74 830.34 477.24 830.31 438.94 C 830.20 435.46 831.37 432.32 833.97 429.96 C 838.59 425.58 846.71 426.40 850.28 431.72 Z" fill="#000000" />
<path d="M 1066.92 428.34 C 1085.70 431.68 1102.04 443.84 1112.27 459.71 C 1119.03 470.23 1122.32 482.53 1122.44 495.00 C 1122.48 514.33 1122.44 533.68 1122.46 553.02 C 1122.59 556.68 1121.26 560.05 1118.45 562.43 C 1113.98 566.25 1106.67 565.64 1103.01 560.99 C 1099.36 556.87 1100.62 551.60 1100.41 546.53 C 1093.37 552.93 1085.35 558.13 1076.30 561.23 C 1062.94 565.79 1048.06 566.10 1034.46 562.39 C 1020.09 558.45 1007.55 549.20 998.47 537.52 C 979.99 514.21 980.00 477.81 998.50 454.51 C 1007.04 443.51 1018.87 434.52 1032.24 430.33 C 1043.33 426.78 1055.49 426.35 1066.92 428.34 Z" fill="#000000" />
<path d="M 1157.99 427.18 C 1164.02 426.75 1169.26 432.00 1169.29 437.94 C 1169.35 456.27 1169.31 474.66 1169.31 493.00 C 1169.21 498.22 1169.51 503.38 1170.86 508.45 C 1174.05 520.61 1182.85 531.23 1193.75 537.35 C 1203.02 542.51 1213.59 543.71 1224.01 542.29 C 1243.43 539.46 1260.03 522.47 1262.53 503.02 C 1263.19 497.98 1263.09 493.07 1263.09 488.00 C 1263.10 471.33 1263.06 454.62 1263.11 437.95 C 1263.06 434.74 1264.47 431.94 1266.83 429.82 C 1271.07 425.91 1278.49 426.33 1282.21 430.80 C 1284.63 433.36 1285.16 436.57 1285.14 439.98 C 1285.09 477.66 1285.15 515.43 1285.11 553.11 C 1285.09 556.42 1284.18 559.40 1281.76 561.75 C 1277.51 566.21 1269.71 565.96 1265.80 561.18 C 1261.90 557.03 1263.37 551.74 1263.09 546.53 C 1256.56 552.31 1249.41 557.22 1241.25 560.36 C 1227.36 565.74 1211.55 566.31 1197.21 562.42 C 1181.68 558.21 1168.35 547.83 1159.09 534.83 C 1151.29 523.81 1147.36 510.50 1147.28 497.03 C 1147.25 477.36 1147.23 457.64 1147.29 437.97 C 1147.25 432.28 1152.22 427.06 1157.99 427.18 Z" fill="#000000" />
<path d="M 1045.51 449.80 C 1056.02 448.21 1066.83 449.60 1076.17 454.83 C 1084.85 459.75 1092.09 467.47 1096.30 476.54 C 1100.57 485.79 1101.44 496.63 1099.30 506.54 C 1096.76 518.34 1089.18 528.63 1079.25 535.34 C 1067.64 543.33 1051.77 544.79 1038.51 540.56 C 1027.93 537.10 1018.87 529.33 1013.11 519.89 C 1006.89 509.65 1005.35 497.14 1007.80 485.51 C 1011.68 467.63 1027.35 452.54 1045.51 449.80 Z" fill="#ffffff" />
<path d="M 1376.49 449.76 C 1387.51 448.15 1398.83 449.82 1408.39 455.71 C 1417.93 461.63 1425.76 471.05 1429.05 481.86 C 1431.92 491.24 1431.86 501.47 1428.86 510.82 C 1425.55 521.15 1418.06 530.15 1408.99 535.99 C 1397.55 543.38 1382.34 544.64 1369.49 540.64 C 1358.66 537.20 1349.31 529.14 1343.56 519.42 C 1338.13 510.25 1336.49 499.43 1337.92 488.95 C 1340.46 469.49 1357.05 452.57 1376.49 449.76 Z" fill="#ffffff" />
</svg>