<?xml version="1.0" encoding="UTF-8" standalone="no"?>
<!DOCTYPE svg PUBLIC "-//W3C//DTD SVG 1.1//EN" "http://www.w3.org/Graphics/SVG/1.1/DTD/svg11.dtd">
<svg xmlns="http://www.w3.org/2000/svg" version="1.1" viewBox="0 0 1024 1024" width="1024.0pt" height="1024.0pt">
<path d="M 0.00 0.00 L 1024.00 0.00 L 1024.00 1024.00 L 0.00 1024.00 L 0.00 0.00 Z" fill="#ffffff" />
<path d="M 569.02 50.25 C 617.15 56.08 664.31 69.28 708.30 89.68 C 765.23 115.90 816.71 153.76 858.80 200.19 C 859.87 201.43 860.90 202.69 861.92 203.97 C 833.33 211.65 805.37 221.62 776.93 229.91 C 740.00 240.92 701.98 251.33 664.01 257.96 C 634.85 262.63 605.98 265.82 576.65 260.44 C 558.72 257.42 541.89 250.75 526.07 241.92 C 508.44 232.06 491.57 219.60 475.20 207.78 C 462.94 198.99 451.49 189.97 438.01 182.98 C 410.61 168.29 379.88 161.38 349.01 159.55 C 331.69 159.04 314.44 159.02 297.18 160.71 C 267.48 163.66 237.79 169.42 208.85 176.67 C 200.44 178.54 192.25 181.23 183.82 183.01 C 238.59 128.48 306.79 87.74 380.99 65.98 C 441.80 47.94 506.06 42.90 569.02 50.25 Z" fill="#d9e3f0" />
<path d="M 349.01 159.55 C 379.88 161.38 410.61 168.29 438.01 182.98 C 451.49 189.97 462.94 198.99 475.20 207.78 C 491.57 219.60 508.44 232.06 526.07 241.92 C 541.89 250.75 558.72 257.42 576.65 260.44 C 605.98 265.82 634.85 262.63 664.01 257.96 C 701.98 251.33 740.00 240.92 776.93 229.91 C 805.37 221.62 833.33 211.65 861.92 203.97 C 864.28 206.96 866.81 209.81 869.28 212.71 C 908.25 258.86 938.26 312.66 956.81 370.15 C 968.20 405.16 975.09 441.44 978.08 478.11 C 977.86 477.21 977.63 476.30 977.39 475.40 L 975.56 475.76 C 968.02 476.51 960.53 477.59 952.98 478.21 C 930.67 479.74 908.32 478.50 886.29 474.59 C 853.42 468.90 821.64 457.80 791.62 443.37 C 761.26 428.86 732.32 410.73 705.25 390.76 C 686.99 377.64 670.56 362.73 651.81 350.20 C 614.46 324.63 571.83 305.91 526.99 298.74 C 489.85 292.48 451.96 294.21 415.27 302.39 C 367.22 313.28 321.46 334.66 281.75 363.75 C 276.33 367.69 271.48 372.17 265.84 375.82 C 253.12 384.14 239.32 391.11 225.56 397.54 C 175.46 420.47 121.76 435.94 67.38 444.49 C 61.54 445.54 56.33 445.32 50.85 447.57 C 56.90 405.33 68.62 363.94 85.93 324.93 C 107.85 275.23 138.68 229.45 176.29 190.28 C 178.66 187.71 181.14 185.26 183.82 183.01 C 192.25 181.23 200.44 178.54 208.85 176.67 C 237.79 169.42 267.48 163.66 297.18 160.71 C 314.44 159.02 331.69 159.04 349.01 159.55 Z" fill="#abbfdd" />
<path d="M 526.99 298.74 C 571.83 305.91 614.46 324.63 651.81 350.20 C 670.56 362.73 686.99 377.64 705.25 390.76 C 732.32 410.73 761.26 428.86 791.62 443.37 C 821.64 457.80 853.42 468.90 886.29 474.59 C 908.32 478.50 930.67 479.74 952.98 478.21 C 960.53 477.59 968.02 476.51 975.56 475.76 C 973.34 477.52 971.17 479.31 968.73 480.75 C 940.05 498.17 910.27 513.99 880.56 529.56 C 837.76 551.79 794.59 573.28 751.07 594.07 C 722.81 607.50 692.93 618.07 661.88 622.62 C 653.62 623.82 645.36 624.76 637.00 624.78 C 627.73 624.82 618.20 625.04 608.99 623.99 C 590.20 622.03 571.78 617.49 554.09 610.91 C 534.05 603.48 514.72 593.51 496.28 582.74 C 456.35 559.52 417.30 531.94 374.27 514.71 C 345.14 503.06 314.29 495.85 283.02 493.34 C 270.41 492.21 257.65 492.34 245.00 492.60 C 201.93 494.44 160.45 504.03 119.70 517.65 C 95.25 525.93 71.12 535.34 47.60 545.96 C 47.55 547.70 47.51 549.43 47.52 551.18 C 44.98 516.52 45.94 481.98 50.85 447.57 C 56.33 445.32 61.54 445.54 67.38 444.49 C 121.76 435.94 175.46 420.47 225.56 397.54 C 239.32 391.11 253.12 384.14 265.84 375.82 C 271.48 372.17 276.33 367.69 281.75 363.75 C 321.46 334.66 367.22 313.28 415.27 302.39 C 451.96 294.21 489.85 292.48 526.99 298.74 Z" fill="#809ecd" />
<path d="M 975.56 475.76 L 977.39 475.40 C 977.63 476.30 977.86 477.21 978.08 478.11 C 978.67 483.80 979.64 489.26 979.49 495.00 C 979.33 503.33 979.41 511.67 979.36 520.00 C 979.37 526.01 978.67 531.98 978.62 537.99 C 975.33 602.69 958.35 666.71 928.92 724.44 C 919.90 725.29 910.94 727.42 902.00 729.00 C 874.89 733.88 848.02 739.74 821.01 745.10 C 803.65 748.36 785.02 751.99 767.34 750.53 C 747.48 748.79 730.18 741.62 712.05 733.95 C 696.14 726.97 680.33 719.76 664.60 712.40 C 632.67 697.67 599.40 684.14 565.58 674.46 C 535.16 665.88 503.69 660.20 472.00 660.68 C 447.46 660.99 422.79 665.19 399.36 672.42 C 367.85 682.08 337.74 697.11 308.91 712.89 C 269.06 734.99 230.26 759.04 190.73 781.72 C 180.12 787.79 169.52 793.92 158.82 799.84 C 155.27 801.90 151.76 803.01 149.39 806.60 C 142.87 797.77 135.95 789.28 129.81 780.16 C 82.67 712.91 53.97 633.06 47.52 551.18 C 47.51 549.43 47.55 547.70 47.60 545.96 C 71.12 535.34 95.25 525.93 119.70 517.65 C 160.45 504.03 201.93 494.44 245.00 492.60 C 257.65 492.34 270.41 492.21 283.02 493.34 C 314.29 495.85 345.14 503.06 374.27 514.71 C 417.30 531.94 456.35 559.52 496.28 582.74 C 514.72 593.51 534.05 603.48 554.09 610.91 C 571.78 617.49 590.20 622.03 608.99 623.99 C 618.20 625.04 627.73 624.82 637.00 624.78 C 645.36 624.76 653.62 623.82 661.88 622.62 C 692.93 618.07 722.81 607.50 751.07 594.07 C 794.59 573.28 837.76 551.79 880.56 529.56 C 910.27 513.99 940.05 498.17 968.73 480.75 C 971.17 479.31 973.34 477.52 975.56 475.76 Z" fill="#5b7fbe" />
<path d="M 472.00 660.68 C 503.69 660.20 535.16 665.88 565.58 674.46 C 599.40 684.14 632.67 697.67 664.60 712.40 C 680.33 719.76 696.14 726.97 712.05 733.95 C 730.18 741.62 747.48 748.79 767.34 750.53 C 785.02 751.99 803.65 748.36 821.01 745.10 C 848.02 739.74 874.89 733.88 902.00 729.00 C 910.94 727.42 919.90 725.29 928.92 724.44 C 905.78 770.04 875.10 811.78 838.48 847.47 C 790.14 894.72 731.49 931.29 667.70 953.69 C 641.56 962.95 614.41 969.76 587.04 974.22 C 565.92 977.30 544.37 980.04 523.00 979.63 C 511.33 979.59 499.65 979.71 487.98 979.55 C 456.24 977.66 424.84 973.06 394.10 964.86 C 298.31 940.04 211.46 883.59 149.39 806.60 C 151.76 803.01 155.27 801.90 158.82 799.84 C 169.52 793.92 180.12 787.79 190.73 781.72 C 230.26 759.04 269.06 734.99 308.91 712.89 C 337.74 697.11 367.85 682.08 399.36 672.42 C 422.79 665.19 447.46 660.99 472.00 660.68 Z" fill="#416cb4" />
</svg>